<mxfile host="Electron" agent="Mozilla/5.0 (Windows NT 10.0; Win64; x64) AppleWebKit/537.36 (KHTML, like Gecko) draw.io/28.1.2 Chrome/138.0.7204.243 Electron/37.4.0 Safari/537.36" version="28.1.2">
  <diagram name="Page-1" id="Ivs_b2PJV8cT-RYYZ0fu">
    <mxGraphModel dx="1042" dy="626" grid="1" gridSize="10" guides="1" tooltips="1" connect="1" arrows="1" fold="1" page="1" pageScale="1" pageWidth="850" pageHeight="1100" math="0" shadow="0">
      <root>
        <mxCell id="0" />
        <mxCell id="1" parent="0" />
        <mxCell id="7-nlb7nqVZRyu6KD1aG7-1" value="&lt;font style=&quot;font-size: 24px;&quot;&gt;&lt;b&gt;DATA FLOW DIAGRAM&lt;/b&gt;&lt;/font&gt;" style="text;html=1;align=center;verticalAlign=middle;whiteSpace=wrap;rounded=0;" parent="1" vertex="1">
          <mxGeometry y="10" width="270" height="60" as="geometry" />
        </mxCell>
        <mxCell id="7-nlb7nqVZRyu6KD1aG7-2" value="" style="rounded=0;whiteSpace=wrap;html=1;dashed=1;fillColor=none;" parent="1" vertex="1">
          <mxGeometry x="80" y="200" width="200" height="600" as="geometry" />
        </mxCell>
        <mxCell id="7-nlb7nqVZRyu6KD1aG7-3" value="" style="rounded=0;whiteSpace=wrap;html=1;" parent="1" vertex="1">
          <mxGeometry x="120" y="180" width="120" height="40" as="geometry" />
        </mxCell>
        <mxCell id="7-nlb7nqVZRyu6KD1aG7-4" value="&lt;b&gt;SOURCES&lt;/b&gt;" style="text;html=1;align=center;verticalAlign=middle;whiteSpace=wrap;rounded=0;" parent="1" vertex="1">
          <mxGeometry x="150" y="185" width="60" height="30" as="geometry" />
        </mxCell>
        <mxCell id="7-nlb7nqVZRyu6KD1aG7-23" style="edgeStyle=orthogonalEdgeStyle;rounded=0;orthogonalLoop=1;jettySize=auto;html=1;" parent="1" source="7-nlb7nqVZRyu6KD1aG7-5" target="7-nlb7nqVZRyu6KD1aG7-12" edge="1">
          <mxGeometry relative="1" as="geometry" />
        </mxCell>
        <mxCell id="7-nlb7nqVZRyu6KD1aG7-24" style="edgeStyle=orthogonalEdgeStyle;rounded=0;orthogonalLoop=1;jettySize=auto;html=1;entryX=0;entryY=0.5;entryDx=0;entryDy=0;" parent="1" source="7-nlb7nqVZRyu6KD1aG7-5" target="7-nlb7nqVZRyu6KD1aG7-11" edge="1">
          <mxGeometry relative="1" as="geometry" />
        </mxCell>
        <mxCell id="7-nlb7nqVZRyu6KD1aG7-25" style="edgeStyle=orthogonalEdgeStyle;rounded=0;orthogonalLoop=1;jettySize=auto;html=1;entryX=0;entryY=0.5;entryDx=0;entryDy=0;" parent="1" source="7-nlb7nqVZRyu6KD1aG7-5" target="7-nlb7nqVZRyu6KD1aG7-13" edge="1">
          <mxGeometry relative="1" as="geometry" />
        </mxCell>
        <mxCell id="7-nlb7nqVZRyu6KD1aG7-5" value="" style="image;aspect=fixed;html=1;points=[];align=center;fontSize=15;image=img/lib/azure2/general/Folder_Blank.svg;" parent="1" vertex="1">
          <mxGeometry x="145.5" y="390" width="69" height="56.00000000000001" as="geometry" />
        </mxCell>
        <mxCell id="7-nlb7nqVZRyu6KD1aG7-6" value="&lt;b&gt;CRM&lt;/b&gt;" style="text;html=1;align=center;verticalAlign=middle;whiteSpace=wrap;rounded=0;fontSize=15;" parent="1" vertex="1">
          <mxGeometry x="150" y="446" width="60" height="30" as="geometry" />
        </mxCell>
        <mxCell id="7-nlb7nqVZRyu6KD1aG7-29" style="edgeStyle=orthogonalEdgeStyle;rounded=0;orthogonalLoop=1;jettySize=auto;html=1;" parent="1" source="7-nlb7nqVZRyu6KD1aG7-7" target="7-nlb7nqVZRyu6KD1aG7-27" edge="1">
          <mxGeometry relative="1" as="geometry" />
        </mxCell>
        <mxCell id="7-nlb7nqVZRyu6KD1aG7-30" style="edgeStyle=orthogonalEdgeStyle;rounded=0;orthogonalLoop=1;jettySize=auto;html=1;entryX=0;entryY=0.5;entryDx=0;entryDy=0;" parent="1" source="7-nlb7nqVZRyu6KD1aG7-7" target="7-nlb7nqVZRyu6KD1aG7-26" edge="1">
          <mxGeometry relative="1" as="geometry" />
        </mxCell>
        <mxCell id="7-nlb7nqVZRyu6KD1aG7-31" style="edgeStyle=orthogonalEdgeStyle;rounded=0;orthogonalLoop=1;jettySize=auto;html=1;entryX=0;entryY=0.5;entryDx=0;entryDy=0;" parent="1" source="7-nlb7nqVZRyu6KD1aG7-7" target="7-nlb7nqVZRyu6KD1aG7-28" edge="1">
          <mxGeometry relative="1" as="geometry" />
        </mxCell>
        <mxCell id="7-nlb7nqVZRyu6KD1aG7-7" value="" style="image;aspect=fixed;html=1;points=[];align=center;fontSize=12;image=img/lib/azure2/general/Folder_Blank.svg;" parent="1" vertex="1">
          <mxGeometry x="145.5" y="640" width="69" height="56.00000000000001" as="geometry" />
        </mxCell>
        <mxCell id="7-nlb7nqVZRyu6KD1aG7-8" value="&lt;b&gt;ERP&lt;/b&gt;" style="text;html=1;align=center;verticalAlign=middle;whiteSpace=wrap;rounded=0;" parent="1" vertex="1">
          <mxGeometry x="150" y="696" width="60" height="30" as="geometry" />
        </mxCell>
        <mxCell id="7-nlb7nqVZRyu6KD1aG7-9" value="" style="rounded=1;whiteSpace=wrap;html=1;fillColor=none;" parent="1" vertex="1">
          <mxGeometry x="400" y="240" width="240" height="560" as="geometry" />
        </mxCell>
        <mxCell id="7-nlb7nqVZRyu6KD1aG7-10" value="&lt;b&gt;&lt;font style=&quot;font-size: 20px;&quot;&gt;Bronze Layer&lt;/font&gt;&lt;/b&gt;" style="rounded=1;whiteSpace=wrap;html=1;fillColor=#ffe6cc;strokeColor=#d79b00;" parent="1" vertex="1">
          <mxGeometry x="430" y="170" width="180" height="60" as="geometry" />
        </mxCell>
        <mxCell id="uNbijnfLbD5GDGT-rjjf-9" style="edgeStyle=orthogonalEdgeStyle;rounded=0;orthogonalLoop=1;jettySize=auto;html=1;exitX=1;exitY=0.5;exitDx=0;exitDy=0;" parent="1" source="7-nlb7nqVZRyu6KD1aG7-11" target="uNbijnfLbD5GDGT-rjjf-3" edge="1">
          <mxGeometry relative="1" as="geometry" />
        </mxCell>
        <mxCell id="7-nlb7nqVZRyu6KD1aG7-11" value="&lt;font style=&quot;font-size: 18px;&quot;&gt;&lt;b&gt;crm_sales_details&lt;/b&gt;&lt;/font&gt;" style="rounded=1;whiteSpace=wrap;html=1;fillColor=#ffe6cc;strokeColor=#d79b00;" parent="1" vertex="1">
          <mxGeometry x="430" y="321" width="180" height="60" as="geometry" />
        </mxCell>
        <mxCell id="uNbijnfLbD5GDGT-rjjf-10" style="edgeStyle=orthogonalEdgeStyle;rounded=0;orthogonalLoop=1;jettySize=auto;html=1;exitX=1;exitY=0.5;exitDx=0;exitDy=0;" parent="1" source="7-nlb7nqVZRyu6KD1aG7-12" target="uNbijnfLbD5GDGT-rjjf-4" edge="1">
          <mxGeometry relative="1" as="geometry" />
        </mxCell>
        <mxCell id="7-nlb7nqVZRyu6KD1aG7-12" value="&lt;font style=&quot;font-size: 18px;&quot;&gt;&lt;b&gt;crm_cust_info&lt;/b&gt;&lt;/font&gt;" style="rounded=1;whiteSpace=wrap;html=1;fillColor=#ffe6cc;strokeColor=#d79b00;" parent="1" vertex="1">
          <mxGeometry x="430" y="390" width="180" height="60" as="geometry" />
        </mxCell>
        <mxCell id="uNbijnfLbD5GDGT-rjjf-11" style="edgeStyle=orthogonalEdgeStyle;rounded=0;orthogonalLoop=1;jettySize=auto;html=1;exitX=1;exitY=0.5;exitDx=0;exitDy=0;entryX=0;entryY=0.5;entryDx=0;entryDy=0;" parent="1" source="7-nlb7nqVZRyu6KD1aG7-13" target="uNbijnfLbD5GDGT-rjjf-5" edge="1">
          <mxGeometry relative="1" as="geometry" />
        </mxCell>
        <mxCell id="7-nlb7nqVZRyu6KD1aG7-13" value="&lt;font style=&quot;font-size: 18px;&quot;&gt;&lt;b&gt;crm_prd_info&lt;/b&gt;&lt;/font&gt;" style="rounded=1;whiteSpace=wrap;html=1;fillColor=#ffe6cc;strokeColor=#d79b00;" parent="1" vertex="1">
          <mxGeometry x="430" y="460" width="180" height="60" as="geometry" />
        </mxCell>
        <mxCell id="uNbijnfLbD5GDGT-rjjf-12" style="edgeStyle=orthogonalEdgeStyle;rounded=0;orthogonalLoop=1;jettySize=auto;html=1;exitX=1;exitY=0.5;exitDx=0;exitDy=0;" parent="1" source="7-nlb7nqVZRyu6KD1aG7-26" target="uNbijnfLbD5GDGT-rjjf-6" edge="1">
          <mxGeometry relative="1" as="geometry" />
        </mxCell>
        <mxCell id="7-nlb7nqVZRyu6KD1aG7-26" value="&lt;font style=&quot;font-size: 18px;&quot;&gt;&lt;b&gt;erp_cust_az12&lt;/b&gt;&lt;/font&gt;" style="rounded=1;whiteSpace=wrap;html=1;fillColor=#ffe6cc;strokeColor=#d79b00;" parent="1" vertex="1">
          <mxGeometry x="430" y="560" width="180" height="60" as="geometry" />
        </mxCell>
        <mxCell id="uNbijnfLbD5GDGT-rjjf-13" style="edgeStyle=orthogonalEdgeStyle;rounded=0;orthogonalLoop=1;jettySize=auto;html=1;exitX=1;exitY=0.5;exitDx=0;exitDy=0;entryX=0;entryY=0.5;entryDx=0;entryDy=0;" parent="1" source="7-nlb7nqVZRyu6KD1aG7-27" target="uNbijnfLbD5GDGT-rjjf-7" edge="1">
          <mxGeometry relative="1" as="geometry" />
        </mxCell>
        <mxCell id="7-nlb7nqVZRyu6KD1aG7-27" value="&lt;font style=&quot;font-size: 18px;&quot;&gt;&lt;b&gt;erp_loc_a101&lt;/b&gt;&lt;/font&gt;" style="rounded=1;whiteSpace=wrap;html=1;fillColor=#ffe6cc;strokeColor=#d79b00;" parent="1" vertex="1">
          <mxGeometry x="430" y="629" width="180" height="60" as="geometry" />
        </mxCell>
        <mxCell id="uNbijnfLbD5GDGT-rjjf-14" style="edgeStyle=orthogonalEdgeStyle;rounded=0;orthogonalLoop=1;jettySize=auto;html=1;exitX=1;exitY=0.5;exitDx=0;exitDy=0;entryX=0;entryY=0.5;entryDx=0;entryDy=0;" parent="1" source="7-nlb7nqVZRyu6KD1aG7-28" target="uNbijnfLbD5GDGT-rjjf-8" edge="1">
          <mxGeometry relative="1" as="geometry" />
        </mxCell>
        <mxCell id="7-nlb7nqVZRyu6KD1aG7-28" value="&lt;font style=&quot;font-size: 18px;&quot;&gt;&lt;b&gt;erp_px_cat_g1v2&lt;/b&gt;&lt;/font&gt;" style="rounded=1;whiteSpace=wrap;html=1;fillColor=#ffe6cc;strokeColor=#d79b00;" parent="1" vertex="1">
          <mxGeometry x="430" y="699" width="180" height="60" as="geometry" />
        </mxCell>
        <mxCell id="uNbijnfLbD5GDGT-rjjf-1" value="" style="rounded=1;whiteSpace=wrap;html=1;fillColor=none;fontColor=#333333;strokeColor=#666666;" parent="1" vertex="1">
          <mxGeometry x="720" y="240" width="240" height="560" as="geometry" />
        </mxCell>
        <mxCell id="uNbijnfLbD5GDGT-rjjf-2" value="&lt;b&gt;&lt;font style=&quot;font-size: 20px;&quot;&gt;Silver Layer&lt;/font&gt;&lt;/b&gt;" style="rounded=1;whiteSpace=wrap;html=1;fillColor=#f5f5f5;strokeColor=#666666;fontColor=#333333;" parent="1" vertex="1">
          <mxGeometry x="750" y="170" width="180" height="60" as="geometry" />
        </mxCell>
        <mxCell id="uNbijnfLbD5GDGT-rjjf-3" value="&lt;font style=&quot;font-size: 18px;&quot;&gt;&lt;b&gt;crm_sales_details&lt;/b&gt;&lt;/font&gt;" style="rounded=1;whiteSpace=wrap;html=1;fillColor=#f5f5f5;strokeColor=#666666;fontColor=#333333;" parent="1" vertex="1">
          <mxGeometry x="750" y="321" width="180" height="60" as="geometry" />
        </mxCell>
        <mxCell id="uNbijnfLbD5GDGT-rjjf-4" value="&lt;font style=&quot;font-size: 18px;&quot;&gt;&lt;b&gt;crm_cust_info&lt;/b&gt;&lt;/font&gt;" style="rounded=1;whiteSpace=wrap;html=1;fillColor=#f5f5f5;strokeColor=#666666;fontColor=#333333;" parent="1" vertex="1">
          <mxGeometry x="750" y="390" width="180" height="60" as="geometry" />
        </mxCell>
        <mxCell id="uNbijnfLbD5GDGT-rjjf-5" value="&lt;font style=&quot;font-size: 18px;&quot;&gt;&lt;b&gt;crm_prd_info&lt;/b&gt;&lt;/font&gt;" style="rounded=1;whiteSpace=wrap;html=1;fillColor=#f5f5f5;strokeColor=#666666;fontColor=#333333;" parent="1" vertex="1">
          <mxGeometry x="750" y="460" width="180" height="60" as="geometry" />
        </mxCell>
        <mxCell id="uNbijnfLbD5GDGT-rjjf-6" value="&lt;font style=&quot;font-size: 18px;&quot;&gt;&lt;b&gt;erp_cust_az12&lt;/b&gt;&lt;/font&gt;" style="rounded=1;whiteSpace=wrap;html=1;fillColor=#f5f5f5;strokeColor=#666666;fontColor=#333333;" parent="1" vertex="1">
          <mxGeometry x="750" y="560" width="180" height="60" as="geometry" />
        </mxCell>
        <mxCell id="uNbijnfLbD5GDGT-rjjf-7" value="&lt;font style=&quot;font-size: 18px;&quot;&gt;&lt;b&gt;erp_loc_a101&lt;/b&gt;&lt;/font&gt;" style="rounded=1;whiteSpace=wrap;html=1;fillColor=#f5f5f5;strokeColor=#666666;fontColor=#333333;" parent="1" vertex="1">
          <mxGeometry x="750" y="629" width="180" height="60" as="geometry" />
        </mxCell>
        <mxCell id="uNbijnfLbD5GDGT-rjjf-8" value="&lt;font style=&quot;font-size: 18px;&quot;&gt;&lt;b&gt;erp_px_cat_g1v2&lt;/b&gt;&lt;/font&gt;" style="rounded=1;whiteSpace=wrap;html=1;fillColor=#f5f5f5;strokeColor=#666666;fontColor=#333333;" parent="1" vertex="1">
          <mxGeometry x="750" y="699" width="180" height="60" as="geometry" />
        </mxCell>
        <mxCell id="zLXAsTdvO962Pf7CZSRo-1" value="" style="rounded=1;whiteSpace=wrap;html=1;fillColor=none;fontColor=#333333;strokeColor=#666666;" vertex="1" parent="1">
          <mxGeometry x="1080" y="240" width="240" height="560" as="geometry" />
        </mxCell>
        <mxCell id="zLXAsTdvO962Pf7CZSRo-2" value="&lt;b&gt;&lt;font style=&quot;font-size: 20px;&quot;&gt;Gold Layer&lt;/font&gt;&lt;/b&gt;" style="rounded=1;whiteSpace=wrap;html=1;fillColor=#fff2cc;strokeColor=#d6b656;" vertex="1" parent="1">
          <mxGeometry x="1110" y="170" width="180" height="60" as="geometry" />
        </mxCell>
        <mxCell id="zLXAsTdvO962Pf7CZSRo-3" value="&lt;font style=&quot;font-size: 18px;&quot;&gt;&lt;b&gt;fact_sales&lt;/b&gt;&lt;/font&gt;" style="rounded=1;whiteSpace=wrap;html=1;fillColor=#fff2cc;strokeColor=#d6b656;" vertex="1" parent="1">
          <mxGeometry x="1110" y="370" width="180" height="60" as="geometry" />
        </mxCell>
        <mxCell id="zLXAsTdvO962Pf7CZSRo-4" value="&lt;font style=&quot;font-size: 18px;&quot;&gt;&lt;b&gt;dim_customers&lt;/b&gt;&lt;/font&gt;" style="rounded=1;whiteSpace=wrap;html=1;fillColor=#fff2cc;strokeColor=#d6b656;" vertex="1" parent="1">
          <mxGeometry x="1110" y="510" width="180" height="60" as="geometry" />
        </mxCell>
        <mxCell id="zLXAsTdvO962Pf7CZSRo-5" value="&lt;font style=&quot;font-size: 18px;&quot;&gt;&lt;b&gt;dim_products&lt;/b&gt;&lt;/font&gt;" style="rounded=1;whiteSpace=wrap;html=1;fillColor=#fff2cc;strokeColor=#d6b656;" vertex="1" parent="1">
          <mxGeometry x="1120" y="640" width="180" height="60" as="geometry" />
        </mxCell>
        <mxCell id="zLXAsTdvO962Pf7CZSRo-9" value="" style="endArrow=classic;html=1;rounded=0;entryX=0;entryY=0.5;entryDx=0;entryDy=0;exitX=1;exitY=0.5;exitDx=0;exitDy=0;jumpStyle=gap;" edge="1" parent="1" source="uNbijnfLbD5GDGT-rjjf-3" target="zLXAsTdvO962Pf7CZSRo-3">
          <mxGeometry width="50" height="50" relative="1" as="geometry">
            <mxPoint x="1000" y="540" as="sourcePoint" />
            <mxPoint x="1050" y="490" as="targetPoint" />
          </mxGeometry>
        </mxCell>
        <mxCell id="zLXAsTdvO962Pf7CZSRo-10" value="" style="endArrow=classic;html=1;rounded=0;entryX=0;entryY=0.5;entryDx=0;entryDy=0;exitX=1;exitY=0.5;exitDx=0;exitDy=0;jumpStyle=gap;" edge="1" parent="1" source="uNbijnfLbD5GDGT-rjjf-4" target="zLXAsTdvO962Pf7CZSRo-4">
          <mxGeometry width="50" height="50" relative="1" as="geometry">
            <mxPoint x="940" y="361" as="sourcePoint" />
            <mxPoint x="1120" y="410" as="targetPoint" />
          </mxGeometry>
        </mxCell>
        <mxCell id="zLXAsTdvO962Pf7CZSRo-11" value="" style="endArrow=classic;html=1;rounded=0;entryX=0;entryY=0.5;entryDx=0;entryDy=0;exitX=1;exitY=0.5;exitDx=0;exitDy=0;jumpStyle=gap;" edge="1" parent="1" source="uNbijnfLbD5GDGT-rjjf-6" target="zLXAsTdvO962Pf7CZSRo-4">
          <mxGeometry width="50" height="50" relative="1" as="geometry">
            <mxPoint x="940" y="430" as="sourcePoint" />
            <mxPoint x="1120" y="550" as="targetPoint" />
          </mxGeometry>
        </mxCell>
        <mxCell id="zLXAsTdvO962Pf7CZSRo-12" value="" style="endArrow=classic;html=1;rounded=0;entryX=0;entryY=0.5;entryDx=0;entryDy=0;exitX=1;exitY=0.5;exitDx=0;exitDy=0;jumpStyle=gap;" edge="1" parent="1" source="uNbijnfLbD5GDGT-rjjf-7" target="zLXAsTdvO962Pf7CZSRo-4">
          <mxGeometry width="50" height="50" relative="1" as="geometry">
            <mxPoint x="940" y="600" as="sourcePoint" />
            <mxPoint x="1120" y="550" as="targetPoint" />
          </mxGeometry>
        </mxCell>
        <mxCell id="zLXAsTdvO962Pf7CZSRo-13" value="" style="endArrow=classic;html=1;rounded=0;entryX=0;entryY=0.5;entryDx=0;entryDy=0;exitX=1;exitY=0.5;exitDx=0;exitDy=0;jumpStyle=gap;" edge="1" parent="1" source="uNbijnfLbD5GDGT-rjjf-5" target="zLXAsTdvO962Pf7CZSRo-5">
          <mxGeometry width="50" height="50" relative="1" as="geometry">
            <mxPoint x="940" y="669" as="sourcePoint" />
            <mxPoint x="1120" y="550" as="targetPoint" />
          </mxGeometry>
        </mxCell>
        <mxCell id="zLXAsTdvO962Pf7CZSRo-14" value="" style="endArrow=classic;html=1;rounded=0;entryX=0;entryY=0.5;entryDx=0;entryDy=0;exitX=1;exitY=0.5;exitDx=0;exitDy=0;jumpStyle=gap;" edge="1" parent="1" source="uNbijnfLbD5GDGT-rjjf-8" target="zLXAsTdvO962Pf7CZSRo-5">
          <mxGeometry width="50" height="50" relative="1" as="geometry">
            <mxPoint x="940" y="500" as="sourcePoint" />
            <mxPoint x="1130" y="680" as="targetPoint" />
          </mxGeometry>
        </mxCell>
      </root>
    </mxGraphModel>
  </diagram>
</mxfile>
